<?xml version="1.0" encoding="utf-8"?>
<svg viewBox="0 0 800 800" style="enable-background:new 0 0 800 800;" xmlns="http://www.w3.org/2000/svg">
  <g transform="matrix(0.9999999999999999, 0, 0, 0.9999999999999999, 172.8223114013672, 12.54355430603026)">
    <g>
      <path style="fill:#E0013F;" d="M258.853,400.268c0-9.272,7.519-16.783,16.778-16.783c9.277,0,16.788,7.511,16.788,16.783 c0,9.271-7.511,16.783-16.788,16.783C266.371,417.051,258.853,409.539,258.853,400.268z"/>
      <g>
        <g>
          <linearGradient id="SVGID_1_" gradientUnits="userSpaceOnUse" x1="53.8667" y1="-316.0403" x2="53.8667" y2="-317.0443" gradientTransform="matrix(0 -1 1 0 486.7552 438.6807)">
            <stop offset="0" style="stop-color:#E0013F"/>
            <stop offset="1" style="stop-color:#4A017D"/>
          </linearGradient>
          <path style="fill:url(#SVGID_1_);" d="M169.711,384.608c0.342,0.131,0.674,0.263,1.004,0.412 C170.385,384.871,170.053,384.739,169.711,384.608z"/>
          <linearGradient id="SVGID_00000125567162861114444430000004845586495518981035_" gradientUnits="userSpaceOnUse" x1="52.4479" y1="-313.482" x2="52.4479" y2="-314.1622" gradientTransform="matrix(0 -1 1 0 486.7552 438.6807)">
            <stop offset="0" style="stop-color:#E0013F"/>
            <stop offset="1" style="stop-color:#4A017D"/>
          </linearGradient>
          <path style="fill:url(#SVGID_00000125567162861114444430000004845586495518981035_);" d="M172.593,386.031 c0.217,0.136,0.462,0.25,0.68,0.404C173.055,386.28,172.81,386.167,172.593,386.031z"/>
          <linearGradient id="SVGID_00000089569513111830025800000006160122242075701405_" gradientUnits="userSpaceOnUse" x1="54.7786" y1="-318.9667" x2="54.7786" y2="-319.9212" gradientTransform="matrix(0 -1 1 0 486.7552 438.6807)">
            <stop offset="0" style="stop-color:#E0013F"/>
            <stop offset="1" style="stop-color:#4A017D"/>
          </linearGradient>
          <path style="fill:url(#SVGID_00000089569513111830025800000006160122242075701405_);" d="M166.834,383.796 c0.319,0.057,0.631,0.138,0.954,0.212C167.465,383.934,167.153,383.853,166.834,383.796z"/>
          <linearGradient id="SVGID_00000176030299489651839210000000395825234606982292_" gradientUnits="userSpaceOnUse" x1="22.0512" y1="-318.9667" x2="22.0512" y2="-319.9212" gradientTransform="matrix(0 -1 1 0 486.7552 438.6807)">
            <stop offset="0" style="stop-color:#E0013F"/>
            <stop offset="1" style="stop-color:#4A017D"/>
          </linearGradient>
          <path style="fill:url(#SVGID_00000176030299489651839210000000395825234606982292_);" d="M167.788,416.52 c-0.324,0.08-0.636,0.156-0.954,0.219C167.153,416.676,167.465,416.601,167.788,416.52z"/>
          <linearGradient id="SVGID_00000083072009072402723310000010292656647030821520_" gradientUnits="userSpaceOnUse" x1="24.3845" y1="-313.482" x2="24.3845" y2="-314.1622" gradientTransform="matrix(0 -1 1 0 486.7552 438.6807)">
            <stop offset="0" style="stop-color:#E0013F"/>
            <stop offset="1" style="stop-color:#4A017D"/>
          </linearGradient>
          <path style="fill:url(#SVGID_00000083072009072402723310000010292656647030821520_);" d="M173.273,414.093 c-0.219,0.156-0.463,0.274-0.68,0.406C172.81,414.368,173.055,414.25,173.273,414.093z"/>
          <linearGradient id="SVGID_00000148626372624886646620000017818789348580316085_" gradientUnits="userSpaceOnUse" x1="25.7391" y1="-310.8185" x2="25.7391" y2="-313.4573" gradientTransform="matrix(0 -1 1 0 486.7552 438.6807)">
            <stop offset="0" style="stop-color:#E0013F"/>
            <stop offset="1" style="stop-color:#4A017D"/>
          </linearGradient>
          <path style="fill:url(#SVGID_00000148626372624886646620000017818789348580316085_);" d="M175.937,411.803l-2.639,2.277 C174.266,413.42,175.138,412.644,175.937,411.803z"/>
          <linearGradient id="SVGID_00000085236187746715940550000018057231049183182765_" gradientUnits="userSpaceOnUse" x1="22.9624" y1="-316.0403" x2="22.9624" y2="-317.0443" gradientTransform="matrix(0 -1 1 0 486.7552 438.6807)">
            <stop offset="0" style="stop-color:#E0013F"/>
            <stop offset="1" style="stop-color:#4A017D"/>
          </linearGradient>
          <path style="fill:url(#SVGID_00000085236187746715940550000018057231049183182765_);" d="M170.715,415.516 c-0.33,0.15-0.662,0.273-1.004,0.404C170.053,415.789,170.385,415.666,170.715,415.516z"/>
          <linearGradient id="SVGID_00000034794576046209556630000003638783933625298821_" gradientUnits="userSpaceOnUse" x1="50.3669" y1="-309.6404" x2="50.3669" y2="-313.4573" gradientTransform="matrix(0 -1 1 0 486.7552 438.6807)">
            <stop offset="0" style="stop-color:#E0013F"/>
            <stop offset="1" style="stop-color:#4A017D"/>
          </linearGradient>
          <path style="fill:url(#SVGID_00000034794576046209556630000003638783933625298821_);" d="M177.115,390.173 c-1.078-1.434-2.345-2.708-3.817-3.718l2.657,2.315C176.374,389.212,176.742,389.687,177.115,390.173z"/>
          <linearGradient id="SVGID_00000041993387448483048090000013791414388128489110_" gradientUnits="userSpaceOnUse" x1="28.4552" y1="-309.1458" x2="28.4552" y2="-309.895" gradientTransform="matrix(0 -1 1 0 486.7552 438.6807)">
            <stop offset="0" style="stop-color:#E0013F"/>
            <stop offset="1" style="stop-color:#4A017D"/>
          </linearGradient>
          <path style="fill:url(#SVGID_00000041993387448483048090000013791414388128489110_);" d="M176.86,410.689 c0.25-0.314,0.524-0.602,0.749-0.927l0,0C177.384,410.094,177.11,410.375,176.86,410.689z"/>
          <linearGradient id="SVGID_00000031208158694944525570000004214145172960501682_" gradientUnits="userSpaceOnUse" x1="22.0512" y1="-270.1335" x2="22.0512" y2="-271.0817" gradientTransform="matrix(0 -1 1 0 486.7552 438.6807)">
            <stop offset="0" style="stop-color:#E0013F"/>
            <stop offset="1" style="stop-color:#4A017D"/>
          </linearGradient>
          <path style="fill:url(#SVGID_00000031208158694944525570000004214145172960501682_);" d="M216.622,416.739 c-0.325-0.062-0.636-0.138-0.948-0.219C215.991,416.601,216.296,416.676,216.622,416.739z"/>
          <linearGradient id="SVGID_00000167377971579853903230000011211503146077960098_" gradientUnits="userSpaceOnUse" x1="51.0908" y1="-276.5975" x2="51.0908" y2="-279.2299" gradientTransform="matrix(0 -1 1 0 486.7552 438.6807)">
            <stop offset="0" style="stop-color:#E0013F"/>
            <stop offset="1" style="stop-color:#4A017D"/>
          </linearGradient>
          <path style="fill:url(#SVGID_00000167377971579853903230000011211503146077960098_);" d="M207.525,388.725l2.632-2.271 C209.196,387.11,208.324,387.891,207.525,388.725z"/>
          <linearGradient id="SVGID_00000049927169541309365030000004522700654768019358_" gradientUnits="userSpaceOnUse" x1="48.3713" y1="-280.1598" x2="48.3713" y2="-280.9156" gradientTransform="matrix(0 -1 1 0 486.7552 438.6807)">
            <stop offset="0" style="stop-color:#E0013F"/>
            <stop offset="1" style="stop-color:#4A017D"/>
          </linearGradient>
          <path style="fill:url(#SVGID_00000049927169541309365030000004522700654768019358_);" d="M206.595,389.848 c-0.25,0.314-0.531,0.593-0.756,0.923c0,0,0.007,0,0.007-0.007C206.071,390.436,206.346,390.161,206.595,389.848z"/>
          <linearGradient id="SVGID_00000083056951298374585480000000426082006117915832_" gradientUnits="userSpaceOnUse" x1="22.9624" y1="-273.0107" x2="22.9624" y2="-274.0147" gradientTransform="matrix(0 -1 1 0 486.7552 438.6807)">
            <stop offset="0" style="stop-color:#E0013F"/>
            <stop offset="1" style="stop-color:#4A017D"/>
          </linearGradient>
          <path style="fill:url(#SVGID_00000083056951298374585480000000426082006117915832_);" d="M213.744,415.92 c-0.342-0.131-0.685-0.255-1.004-0.404C213.059,415.666,213.403,415.789,213.744,415.92z"/>
          <linearGradient id="SVGID_00000132073623733601098000000011382754436958455694_" gradientUnits="userSpaceOnUse" x1="53.8667" y1="-273.0107" x2="53.8667" y2="-274.0147" gradientTransform="matrix(0 -1 1 0 486.7552 438.6807)">
            <stop offset="0" style="stop-color:#E0013F"/>
            <stop offset="1" style="stop-color:#4A017D"/>
          </linearGradient>
          <path style="fill:url(#SVGID_00000132073623733601098000000011382754436958455694_);" d="M212.74,385.02 c0.319-0.15,0.662-0.281,1.004-0.412C213.403,384.739,213.059,384.871,212.74,385.02z"/>
          <linearGradient id="SVGID_00000034052580890630281170000013166832929843116195_" gradientUnits="userSpaceOnUse" x1="54.7786" y1="-270.1335" x2="54.7786" y2="-271.0817" gradientTransform="matrix(0 -1 1 0 486.7552 438.6807)">
            <stop offset="0" style="stop-color:#E0013F"/>
            <stop offset="1" style="stop-color:#4A017D"/>
          </linearGradient>
          <path style="fill:url(#SVGID_00000034052580890630281170000013166832929843116195_);" d="M215.673,384.008 c0.312-0.074,0.623-0.155,0.948-0.212C216.296,383.853,215.991,383.934,215.673,384.008z"/>
          <linearGradient id="SVGID_00000149369633038159397580000001287358759309489797_" gradientUnits="userSpaceOnUse" x1="26.4589" y1="-276.5975" x2="26.4589" y2="-280.416" gradientTransform="matrix(0 -1 1 0 486.7552 438.6807)">
            <stop offset="0" style="stop-color:#E0013F"/>
            <stop offset="1" style="stop-color:#4A017D"/>
          </linearGradient>
          <path style="fill:url(#SVGID_00000149369633038159397580000001287358759309489797_);" d="M206.339,410.363 c1.08,1.433,2.346,2.708,3.819,3.717l-2.67-2.32C207.069,411.323,206.714,410.843,206.339,410.363z"/>
          <linearGradient id="SVGID_00000051371085958412106900000014064710269399862954_" gradientUnits="userSpaceOnUse" x1="52.4479" y1="-275.8861" x2="52.4479" y2="-276.5795" gradientTransform="matrix(0 -1 1 0 486.7552 438.6807)">
            <stop offset="0" style="stop-color:#E0013F"/>
            <stop offset="1" style="stop-color:#4A017D"/>
          </linearGradient>
          <path style="fill:url(#SVGID_00000051371085958412106900000014064710269399862954_);" d="M210.176,386.435 c0.219-0.155,0.457-0.268,0.693-0.404C210.632,386.167,210.394,386.28,210.176,386.435z"/>
          <linearGradient id="SVGID_00000161595090742086663420000014742626107007092119_" gradientUnits="userSpaceOnUse" x1="24.3845" y1="-275.8861" x2="24.3845" y2="-276.5795" gradientTransform="matrix(0 -1 1 0 486.7552 438.6807)">
            <stop offset="0" style="stop-color:#E0013F"/>
            <stop offset="1" style="stop-color:#4A017D"/>
          </linearGradient>
          <path style="fill:url(#SVGID_00000161595090742086663420000014742626107007092119_);" d="M210.869,414.499 c-0.237-0.132-0.475-0.25-0.693-0.406C210.394,414.25,210.632,414.368,210.869,414.499z"/>
          <linearGradient id="SVGID_00000018230748165166560170000003989650716352985525_" gradientUnits="userSpaceOnUse" x1="38.4124" y1="-250.2996" x2="38.4124" y2="-339.7552" gradientTransform="matrix(0 -1 1 0 486.7552 438.6807)">
            <stop offset="0" style="stop-color:#E0013F"/>
            <stop offset="1" style="stop-color:#4A017D"/>
          </linearGradient>
          <path style="fill:url(#SVGID_00000018230748165166560170000003989650716352985525_);" d="M163.789,417.051 c1.048,0,2.052-0.125,3.045-0.312c0.319-0.062,0.631-0.138,0.954-0.219c0.649-0.169,1.298-0.368,1.922-0.6 c0.342-0.131,0.674-0.255,1.004-0.404c0.649-0.299,1.272-0.642,1.878-1.017c0.217-0.132,0.462-0.25,0.68-0.406l0,0l0.025-0.013 l2.639-2.277v-0.007c0.337-0.348,0.606-0.741,0.924-1.107c0.25-0.314,0.524-0.595,0.749-0.927l0,0 c7.511-7.959,20.838-7.923,28.312,0.089c0.125,0.187,0.288,0.339,0.417,0.513c0.375,0.48,0.73,0.96,1.149,1.397l2.67,2.32 l0.018,0.013l0,0c0.219,0.156,0.457,0.274,0.693,0.406c0.592,0.375,1.216,0.718,1.871,1.017c0.319,0.15,0.662,0.273,1.004,0.404 c0.624,0.232,1.267,0.431,1.929,0.6c0.312,0.08,0.623,0.156,0.948,0.219c0.991,0.187,2.003,0.312,3.043,0.312 c9.265,0,16.791-7.512,16.791-16.783c0-9.272-7.525-16.783-16.791-16.783c-1.04,0-2.052,0.125-3.043,0.311 c-0.325,0.057-0.636,0.138-0.948,0.212c-0.662,0.176-1.305,0.37-1.929,0.6c-0.342,0.131-0.685,0.263-1.004,0.412 c-0.655,0.292-1.28,0.636-1.871,1.01c-0.237,0.136-0.475,0.25-0.693,0.404l0,0l-0.018,0.02l-2.632,2.271l-0.013,0.013 c-0.325,0.348-0.611,0.736-0.917,1.109c-0.25,0.314-0.524,0.588-0.749,0.917c0,0.007-0.007,0.007-0.007,0.007 c-7.506,7.956-20.831,7.925-28.306-0.092c-0.125-0.182-0.287-0.332-0.419-0.506c-0.373-0.486-0.741-0.961-1.16-1.403 l-2.657-2.315l-0.025-0.02l0,0c-0.219-0.155-0.463-0.268-0.68-0.404c-0.606-0.375-1.229-0.718-1.878-1.01 c-0.33-0.15-0.662-0.281-1.004-0.412c-0.624-0.23-1.273-0.424-1.922-0.6c-0.324-0.074-0.636-0.155-0.954-0.212 c-0.993-0.186-1.997-0.311-3.045-0.311c-9.27,0-16.789,7.511-16.789,16.783C147,409.539,154.519,417.051,163.789,417.051z"/>
        </g>
        <g>
          <linearGradient id="SVGID_00000132055094747133024930000001487755092522008711_" gradientUnits="userSpaceOnUse" x1="53.8667" y1="-260.0696" x2="53.8667" y2="-261.0816" gradientTransform="matrix(0 -1 1 0 486.7552 438.6807)">
            <stop offset="0" style="stop-color:#E0013F"/>
            <stop offset="1" style="stop-color:#4A017D"/>
          </linearGradient>
          <path style="fill:url(#SVGID_00000132055094747133024930000001487755092522008711_);" d="M225.674,384.608 c0.35,0.131,0.68,0.263,1.012,0.412C226.354,384.871,226.023,384.739,225.674,384.608z"/>
          <linearGradient id="SVGID_00000006680351537872727270000008411986118087163530_" gradientUnits="userSpaceOnUse" x1="52.4479" y1="-257.5062" x2="52.4479" y2="-258.1981" gradientTransform="matrix(0 -1 1 0 486.7552 438.6807)">
            <stop offset="0" style="stop-color:#E0013F"/>
            <stop offset="1" style="stop-color:#4A017D"/>
          </linearGradient>
          <path style="fill:url(#SVGID_00000006680351537872727270000008411986118087163530_);" d="M228.557,386.031 c0.223,0.136,0.467,0.25,0.692,0.404C229.024,386.28,228.78,386.167,228.557,386.031z"/>
          <linearGradient id="SVGID_00000026864002627797300210000013170642079984005794_" gradientUnits="userSpaceOnUse" x1="54.7786" y1="-263.0024" x2="54.7786" y2="-263.9505" gradientTransform="matrix(0 -1 1 0 486.7552 438.6807)">
            <stop offset="0" style="stop-color:#E0013F"/>
            <stop offset="1" style="stop-color:#4A017D"/>
          </linearGradient>
          <path style="fill:url(#SVGID_00000026864002627797300210000013170642079984005794_);" d="M222.805,383.796 c0.317,0.057,0.629,0.138,0.948,0.212C223.434,383.934,223.122,383.853,222.805,383.796z"/>
          <linearGradient id="SVGID_00000145755651281760641000000015118019142716309161_" gradientUnits="userSpaceOnUse" x1="22.0512" y1="-263.0024" x2="22.0512" y2="-263.9505" gradientTransform="matrix(0 -1 1 0 486.7552 438.6807)">
            <stop offset="0" style="stop-color:#E0013F"/>
            <stop offset="1" style="stop-color:#4A017D"/>
          </linearGradient>
          <path style="fill:url(#SVGID_00000145755651281760641000000015118019142716309161_);" d="M223.753,416.52 c-0.319,0.08-0.631,0.156-0.948,0.219C223.122,416.676,223.434,416.601,223.753,416.52z"/>
          <linearGradient id="SVGID_00000150073708977566380120000006311877947528489149_" gradientUnits="userSpaceOnUse" x1="24.3845" y1="-257.5062" x2="24.3845" y2="-258.1981" gradientTransform="matrix(0 -1 1 0 486.7552 438.6807)">
            <stop offset="0" style="stop-color:#E0013F"/>
            <stop offset="1" style="stop-color:#4A017D"/>
          </linearGradient>
          <path style="fill:url(#SVGID_00000150073708977566380120000006311877947528489149_);" d="M229.249,414.093 c-0.225,0.156-0.469,0.274-0.692,0.406C228.78,414.368,229.024,414.25,229.249,414.093z"/>
          <linearGradient id="SVGID_00000132779906172406477250000008482784990451460759_" gradientUnits="userSpaceOnUse" x1="25.7391" y1="-254.8544" x2="25.7391" y2="-257.4931" gradientTransform="matrix(0 -1 1 0 486.7552 438.6807)">
            <stop offset="0" style="stop-color:#E0013F"/>
            <stop offset="1" style="stop-color:#4A017D"/>
          </linearGradient>
          <path style="fill:url(#SVGID_00000132779906172406477250000008482784990451460759_);" d="M231.901,411.803l-2.639,2.277 C230.228,413.42,231.102,412.644,231.901,411.803z"/>
          <linearGradient id="SVGID_00000069373936522005696470000012800754347262356649_" gradientUnits="userSpaceOnUse" x1="22.9624" y1="-260.0696" x2="22.9624" y2="-261.0816" gradientTransform="matrix(0 -1 1 0 486.7552 438.6807)">
            <stop offset="0" style="stop-color:#E0013F"/>
            <stop offset="1" style="stop-color:#4A017D"/>
          </linearGradient>
          <path style="fill:url(#SVGID_00000069373936522005696470000012800754347262356649_);" d="M226.686,415.516 c-0.332,0.15-0.662,0.273-1.012,0.404C226.023,415.789,226.354,415.666,226.686,415.516z"/>
          <linearGradient id="SVGID_00000008862790762607775520000000127841746997270207_" gradientUnits="userSpaceOnUse" x1="50.3669" y1="-253.6697" x2="50.3669" y2="-257.4931" gradientTransform="matrix(0 -1 1 0 486.7552 438.6807)">
            <stop offset="0" style="stop-color:#E0013F"/>
            <stop offset="1" style="stop-color:#4A017D"/>
          </linearGradient>
          <path style="fill:url(#SVGID_00000008862790762607775520000000127841746997270207_);" d="M233.085,390.173 c-1.086-1.434-2.351-2.708-3.823-3.718l2.663,2.315C232.343,389.212,232.711,389.687,233.085,390.173z"/>
          <linearGradient id="SVGID_00000100349545901383492430000004104802117517770140_" gradientUnits="userSpaceOnUse" x1="28.4552" y1="-253.1767" x2="28.4552" y2="-253.9308" gradientTransform="matrix(0 -1 1 0 486.7552 438.6807)">
            <stop offset="0" style="stop-color:#E0013F"/>
            <stop offset="1" style="stop-color:#4A017D"/>
          </linearGradient>
          <path style="fill:url(#SVGID_00000100349545901383492430000004104802117517770140_);" d="M232.824,410.689 c0.248-0.314,0.524-0.602,0.754-0.927l0,0C233.348,410.094,233.072,410.375,232.824,410.689z"/>
          <linearGradient id="SVGID_00000142142659833736801930000017832727110803412647_" gradientUnits="userSpaceOnUse" x1="22.0512" y1="-214.1628" x2="22.0512" y2="-215.1125" gradientTransform="matrix(0 -1 1 0 486.7552 438.6807)">
            <stop offset="0" style="stop-color:#E0013F"/>
            <stop offset="1" style="stop-color:#4A017D"/>
          </linearGradient>
          <path style="fill:url(#SVGID_00000142142659833736801930000017832727110803412647_);" d="M272.592,416.739 c-0.319-0.062-0.644-0.138-0.95-0.219C271.961,416.601,272.274,416.676,272.592,416.739z"/>
          <linearGradient id="SVGID_00000103966476006159435490000012426546525279314842_" gradientUnits="userSpaceOnUse" x1="51.0908" y1="-220.6268" x2="51.0908" y2="-223.2672" gradientTransform="matrix(0 -1 1 0 486.7552 438.6807)">
            <stop offset="0" style="stop-color:#E0013F"/>
            <stop offset="1" style="stop-color:#4A017D"/>
          </linearGradient>
          <path style="fill:url(#SVGID_00000103966476006159435490000012426546525279314842_);" d="M263.488,388.725l2.64-2.271 C265.161,387.11,264.286,387.891,263.488,388.725z"/>
          <linearGradient id="SVGID_00000111180529446321672640000014243669967931135901_" gradientUnits="userSpaceOnUse" x1="48.3713" y1="-224.1906" x2="48.3713" y2="-224.9514" gradientTransform="matrix(0 -1 1 0 486.7552 438.6807)">
            <stop offset="0" style="stop-color:#E0013F"/>
            <stop offset="1" style="stop-color:#4A017D"/>
          </linearGradient>
          <path style="fill:url(#SVGID_00000111180529446321672640000014243669967931135901_);" d="M262.565,389.848 c-0.248,0.314-0.529,0.593-0.761,0.923c0,0,0.013,0,0.013-0.007C262.04,390.436,262.316,390.161,262.565,389.848z"/>
          <linearGradient id="SVGID_00000008843072181535160710000015478514042400158337_" gradientUnits="userSpaceOnUse" x1="22.9624" y1="-217.0465" x2="22.9624" y2="-218.0455" gradientTransform="matrix(0 -1 1 0 486.7552 438.6807)">
            <stop offset="0" style="stop-color:#E0013F"/>
            <stop offset="1" style="stop-color:#4A017D"/>
          </linearGradient>
          <path style="fill:url(#SVGID_00000008843072181535160710000015478514042400158337_);" d="M269.709,415.92 c-0.337-0.131-0.68-0.255-0.999-0.404C269.028,415.666,269.372,415.789,269.709,415.92z"/>
          <linearGradient id="SVGID_00000136379931702948751880000008448526045954225554_" gradientUnits="userSpaceOnUse" x1="53.8667" y1="-217.0465" x2="53.8667" y2="-218.0455" gradientTransform="matrix(0 -1 1 0 486.7552 438.6807)">
            <stop offset="0" style="stop-color:#E0013F"/>
            <stop offset="1" style="stop-color:#4A017D"/>
          </linearGradient>
          <path style="fill:url(#SVGID_00000136379931702948751880000008448526045954225554_);" d="M268.71,385.02 c0.319-0.15,0.662-0.281,0.999-0.412C269.372,384.739,269.028,384.871,268.71,385.02z"/>
          <linearGradient id="SVGID_00000109030343847491276360000006323288621825230755_" gradientUnits="userSpaceOnUse" x1="54.7786" y1="-214.1628" x2="54.7786" y2="-215.1125" gradientTransform="matrix(0 -1 1 0 486.7552 438.6807)">
            <stop offset="0" style="stop-color:#E0013F"/>
            <stop offset="1" style="stop-color:#4A017D"/>
          </linearGradient>
          <path style="fill:url(#SVGID_00000109030343847491276360000006323288621825230755_);" d="M271.643,384.008 c0.306-0.074,0.631-0.155,0.95-0.212C272.274,383.853,271.961,383.934,271.643,384.008z"/>
          <linearGradient id="SVGID_00000017489685883927112900000017747099275714458264_" gradientUnits="userSpaceOnUse" x1="26.4589" y1="-220.6268" x2="26.4589" y2="-224.4453" gradientTransform="matrix(0 -1 1 0 486.7552 438.6807)">
            <stop offset="0" style="stop-color:#E0013F"/>
            <stop offset="1" style="stop-color:#4A017D"/>
          </linearGradient>
          <path style="fill:url(#SVGID_00000017489685883927112900000017747099275714458264_);" d="M262.31,410.363 c1.078,1.433,2.345,2.708,3.818,3.717l-2.672-2.32C263.046,411.323,262.676,410.843,262.31,410.363z"/>
          <linearGradient id="SVGID_00000066502773714895304100000003552765653715802279_" gradientUnits="userSpaceOnUse" x1="52.4479" y1="-219.9153" x2="52.4479" y2="-220.6086" gradientTransform="matrix(0 -1 1 0 486.7552 438.6807)">
            <stop offset="0" style="stop-color:#E0013F"/>
            <stop offset="1" style="stop-color:#4A017D"/>
          </linearGradient>
          <path style="fill:url(#SVGID_00000066502773714895304100000003552765653715802279_);" d="M266.147,386.435 c0.212-0.155,0.455-0.268,0.693-0.404C266.602,386.167,266.358,386.28,266.147,386.435z"/>
          <linearGradient id="SVGID_00000068657178634674470840000004651791557773020057_" gradientUnits="userSpaceOnUse" x1="24.3845" y1="-219.9153" x2="24.3845" y2="-220.6086" gradientTransform="matrix(0 -1 1 0 486.7552 438.6807)">
            <stop offset="0" style="stop-color:#E0013F"/>
            <stop offset="1" style="stop-color:#4A017D"/>
          </linearGradient>
          <path style="fill:url(#SVGID_00000068657178634674470840000004651791557773020057_);" d="M266.84,414.499 c-0.238-0.132-0.482-0.25-0.693-0.406C266.358,414.25,266.602,414.368,266.84,414.499z"/>
        </g>
      </g>
      <g>
        <g>
          <linearGradient id="SVGID_00000107588991350232842450000008116639199079110034_" gradientUnits="userSpaceOnUse" x1="25.7038" y1="-287.304" x2="25.7038" y2="-288.3146" gradientTransform="matrix(0 -1 1 0 486.7552 438.6807)">
            <stop offset="0" style="stop-color:#E0013F"/>
            <stop offset="1" style="stop-color:#4A017D"/>
          </linearGradient>
          <path style="fill:url(#SVGID_00000107588991350232842450000008116639199079110034_);" d="M198.441,412.771 c0.343,0.131,0.68,0.255,1.011,0.412C199.121,413.025,198.784,412.902,198.441,412.771z"/>
          <linearGradient id="SVGID_00000040542900395567807980000001154646650653389475_" gradientUnits="userSpaceOnUse" x1="24.2883" y1="-284.7589" x2="24.2883" y2="-285.444" gradientTransform="matrix(0 -1 1 0 486.7552 438.6807)">
            <stop offset="0" style="stop-color:#E0013F"/>
            <stop offset="1" style="stop-color:#4A017D"/>
          </linearGradient>
          <path style="fill:url(#SVGID_00000040542900395567807980000001154646650653389475_);" d="M201.311,414.192 c0.23,0.138,0.473,0.25,0.685,0.401C201.784,414.442,201.541,414.33,201.311,414.192z"/>
          <linearGradient id="SVGID_00000133503223979732038720000016528695574018099597_" gradientUnits="userSpaceOnUse" x1="26.6158" y1="-290.2419" x2="26.6158" y2="-291.1966" gradientTransform="matrix(0 -1 1 0 486.7552 438.6807)">
            <stop offset="0" style="stop-color:#E0013F"/>
            <stop offset="1" style="stop-color:#4A017D"/>
          </linearGradient>
          <path style="fill:url(#SVGID_00000133503223979732038720000016528695574018099597_);" d="M195.559,411.959 c0.317,0.057,0.636,0.136,0.955,0.212C196.195,412.095,195.882,412.016,195.559,411.959z"/>
          <linearGradient id="SVGID_00000127739525078423113780000010613002848493648806_" gradientUnits="userSpaceOnUse" x1="-6.114" y1="-290.2419" x2="-6.114" y2="-291.1966" gradientTransform="matrix(0 -1 1 0 486.7552 438.6807)">
            <stop offset="0" style="stop-color:#E0013F"/>
            <stop offset="1" style="stop-color:#4A017D"/>
          </linearGradient>
          <path style="fill:url(#SVGID_00000127739525078423113780000010613002848493648806_);" d="M196.513,444.688 c-0.319,0.076-0.637,0.151-0.955,0.214C195.882,444.839,196.195,444.763,196.513,444.688z"/>
          <linearGradient id="SVGID_00000182491251003388629720000011168886420146018480_" gradientUnits="userSpaceOnUse" x1="-3.7775" y1="-284.7589" x2="-3.7775" y2="-285.444" gradientTransform="matrix(0 -1 1 0 486.7552 438.6807)">
            <stop offset="0" style="stop-color:#E0013F"/>
            <stop offset="1" style="stop-color:#4A017D"/>
          </linearGradient>
          <path style="fill:url(#SVGID_00000182491251003388629720000011168886420146018480_);" d="M201.996,442.256 c-0.212,0.158-0.455,0.276-0.685,0.404C201.541,442.532,201.784,442.414,201.996,442.256z"/>
          <linearGradient id="SVGID_00000008871059301684252560000006147297232939399846_" gradientUnits="userSpaceOnUse" x1="-2.4237" y1="-282.0937" x2="-2.4237" y2="-284.7392" gradientTransform="matrix(0 -1 1 0 486.7552 438.6807)">
            <stop offset="0" style="stop-color:#E0013F"/>
            <stop offset="1" style="stop-color:#4A017D"/>
          </linearGradient>
          <path style="fill:url(#SVGID_00000008871059301684252560000006147297232939399846_);" d="M204.661,439.966l-2.645,2.277 C202.989,441.582,203.856,440.807,204.661,439.966z"/>
          <linearGradient id="SVGID_00000072978977528788476610000016671477514612918186_" gradientUnits="userSpaceOnUse" x1="-5.2038" y1="-287.304" x2="-5.2038" y2="-288.3146" gradientTransform="matrix(0 -1 1 0 486.7552 438.6807)">
            <stop offset="0" style="stop-color:#E0013F"/>
            <stop offset="1" style="stop-color:#4A017D"/>
          </linearGradient>
          <path style="fill:url(#SVGID_00000072978977528788476610000016671477514612918186_);" d="M199.451,443.679 c-0.33,0.148-0.667,0.273-1.011,0.411C198.784,443.952,199.121,443.827,199.451,443.679z"/>
          <linearGradient id="SVGID_00000023243266744294350040000012371221082283947158_" gradientUnits="userSpaceOnUse" x1="22.2041" y1="-280.9156" x2="22.2041" y2="-284.7392" gradientTransform="matrix(0 -1 1 0 486.7552 438.6807)">
            <stop offset="0" style="stop-color:#E0013F"/>
            <stop offset="1" style="stop-color:#4A017D"/>
          </linearGradient>
          <path style="fill:url(#SVGID_00000023243266744294350040000012371221082283947158_);" d="M205.84,418.336 c-1.078-1.435-2.34-2.708-3.824-3.719l2.677,2.315C205.11,417.376,205.471,417.856,205.84,418.336z"/>
          <linearGradient id="SVGID_00000169552622655673407640000012706640495147341744_" gradientUnits="userSpaceOnUse" x1="0.2924" y1="-280.416" x2="0.2924" y2="-281.1703" gradientTransform="matrix(0 -1 1 0 486.7552 438.6807)">
            <stop offset="0" style="stop-color:#E0013F"/>
            <stop offset="1" style="stop-color:#4A017D"/>
          </linearGradient>
          <path style="fill:url(#SVGID_00000169552622655673407640000012706640495147341744_);" d="M205.585,438.852 c0.25-0.315,0.529-0.601,0.754-0.927l0,0C206.114,438.257,205.835,438.536,205.585,438.852z"/>
          <linearGradient id="SVGID_00000090993207964971669750000009638358161833490830_" gradientUnits="userSpaceOnUse" x1="-6.114" y1="-241.4038" x2="-6.114" y2="-242.3585" gradientTransform="matrix(0 -1 1 0 486.7552 438.6807)">
            <stop offset="0" style="stop-color:#E0013F"/>
            <stop offset="1" style="stop-color:#4A017D"/>
          </linearGradient>
          <path style="fill:url(#SVGID_00000090993207964971669750000009638358161833490830_);" d="M245.351,444.901 c-0.33-0.062-0.636-0.138-0.955-0.214C244.715,444.763,245.021,444.839,245.351,444.901z"/>
          <linearGradient id="SVGID_00000167388028903360798480000014909088907674267303_" gradientUnits="userSpaceOnUse" x1="22.9279" y1="-247.8727" x2="22.9279" y2="-250.5067" gradientTransform="matrix(0 -1 1 0 486.7552 438.6807)">
            <stop offset="0" style="stop-color:#E0013F"/>
            <stop offset="1" style="stop-color:#4A017D"/>
          </linearGradient>
          <path style="fill:url(#SVGID_00000167388028903360798480000014909088907674267303_);" d="M236.248,416.888l2.634-2.271 C237.928,415.28,237.06,416.053,236.248,416.888z"/>
          <linearGradient id="SVGID_00000019661375086997254350000007264731244067471766_" gradientUnits="userSpaceOnUse" x1="20.2085" y1="-251.4235" x2="20.2085" y2="-252.1842" gradientTransform="matrix(0 -1 1 0 486.7552 438.6807)">
            <stop offset="0" style="stop-color:#E0013F"/>
            <stop offset="1" style="stop-color:#4A017D"/>
          </linearGradient>
          <path style="fill:url(#SVGID_00000019661375086997254350000007264731244067471766_);" d="M235.332,418.01 c-0.256,0.312-0.536,0.595-0.761,0.924c0,0,0,0,0-0.007C234.796,418.599,235.075,418.323,235.332,418.01z"/>
          <linearGradient id="SVGID_00000181808274625213373590000002308544012282694539_" gradientUnits="userSpaceOnUse" x1="-5.2038" y1="-244.2793" x2="-5.2038" y2="-245.2898" gradientTransform="matrix(0 -1 1 0 486.7552 438.6807)">
            <stop offset="0" style="stop-color:#E0013F"/>
            <stop offset="1" style="stop-color:#4A017D"/>
          </linearGradient>
          <path style="fill:url(#SVGID_00000181808274625213373590000002308544012282694539_);" d="M242.476,444.09 c-0.35-0.138-0.687-0.263-1.01-0.411C241.789,443.827,242.126,443.952,242.476,444.09z"/>
          <linearGradient id="SVGID_00000150810750812967858380000008482712999253409162_" gradientUnits="userSpaceOnUse" x1="25.7038" y1="-244.2793" x2="25.7038" y2="-245.2898" gradientTransform="matrix(0 -1 1 0 486.7552 438.6807)">
            <stop offset="0" style="stop-color:#E0013F"/>
            <stop offset="1" style="stop-color:#4A017D"/>
          </linearGradient>
          <path style="fill:url(#SVGID_00000150810750812967858380000008482712999253409162_);" d="M241.465,413.183 c0.324-0.158,0.661-0.281,1.01-0.412C242.126,412.902,241.789,413.025,241.465,413.183z"/>
          <linearGradient id="SVGID_00000030454254186606888500000011282568732327524794_" gradientUnits="userSpaceOnUse" x1="26.6158" y1="-241.4038" x2="26.6158" y2="-242.3585" gradientTransform="matrix(0 -1 1 0 486.7552 438.6807)">
            <stop offset="0" style="stop-color:#E0013F"/>
            <stop offset="1" style="stop-color:#4A017D"/>
          </linearGradient>
          <path style="fill:url(#SVGID_00000030454254186606888500000011282568732327524794_);" d="M244.397,412.171 c0.319-0.076,0.624-0.155,0.955-0.212C245.021,412.016,244.715,412.095,244.397,412.171z"/>
          <linearGradient id="SVGID_00000080168709395529025850000002508034072417964957_" gradientUnits="userSpaceOnUse" x1="-1.704" y1="-247.8727" x2="-1.704" y2="-251.6848" gradientTransform="matrix(0 -1 1 0 486.7552 438.6807)">
            <stop offset="0" style="stop-color:#E0013F"/>
            <stop offset="1" style="stop-color:#4A017D"/>
          </linearGradient>
          <path style="fill:url(#SVGID_00000080168709395529025850000002508034072417964957_);" d="M235.07,438.526 c1.079,1.433,2.345,2.708,3.812,3.717l-2.665-2.32C235.806,439.486,235.438,439.006,235.07,438.526z"/>
          <linearGradient id="SVGID_00000113332008743305783360000018384985572247207311_" gradientUnits="userSpaceOnUse" x1="24.2883" y1="-247.1613" x2="24.2883" y2="-247.8481" gradientTransform="matrix(0 -1 1 0 486.7552 438.6807)">
            <stop offset="0" style="stop-color:#E0013F"/>
            <stop offset="1" style="stop-color:#4A017D"/>
          </linearGradient>
          <path style="fill:url(#SVGID_00000113332008743305783360000018384985572247207311_);" d="M238.907,414.593 c0.219-0.151,0.462-0.263,0.687-0.401C239.369,414.33,239.126,414.442,238.907,414.593z"/>
          <linearGradient id="SVGID_00000124157788339080133600000007737807458277384616_" gradientUnits="userSpaceOnUse" x1="-3.7775" y1="-247.1613" x2="-3.7775" y2="-247.8481" gradientTransform="matrix(0 -1 1 0 486.7552 438.6807)">
            <stop offset="0" style="stop-color:#E0013F"/>
            <stop offset="1" style="stop-color:#4A017D"/>
          </linearGradient>
          <path style="fill:url(#SVGID_00000124157788339080133600000007737807458277384616_);" d="M239.594,442.66 c-0.225-0.128-0.468-0.247-0.687-0.404C239.126,442.414,239.369,442.532,239.594,442.66z"/>
          <linearGradient id="SVGID_00000014605181275219641870000015680251033031938492_" gradientUnits="userSpaceOnUse" x1="10.2496" y1="-221.5764" x2="10.2496" y2="-311.0189" gradientTransform="matrix(0 -1 1 0 486.7552 438.6807)">
            <stop offset="0" style="stop-color:#E0013F"/>
            <stop offset="1" style="stop-color:#4A017D"/>
          </linearGradient>
          <path style="fill:url(#SVGID_00000014605181275219641870000015680251033031938492_);" d="M192.507,445.214 c1.061,0,2.059-0.125,3.051-0.312c0.317-0.062,0.636-0.138,0.955-0.214c0.661-0.174,1.298-0.375,1.927-0.598 c0.343-0.138,0.68-0.263,1.011-0.411c0.642-0.299,1.267-0.644,1.86-1.019c0.23-0.128,0.473-0.247,0.685-0.404h0.013l0.007-0.013 l2.645-2.277v-0.007c0.337-0.348,0.616-0.743,0.923-1.107c0.25-0.315,0.529-0.595,0.754-0.927l0,0 c7.512-7.959,20.833-7.93,28.299,0.089c0.131,0.187,0.294,0.339,0.432,0.513c0.368,0.48,0.736,0.96,1.147,1.397l2.665,2.32 l0.018,0.013h0.007c0.219,0.158,0.462,0.276,0.687,0.404c0.605,0.375,1.223,0.72,1.872,1.019 c0.324,0.148,0.661,0.273,1.01,0.411c0.624,0.223,1.265,0.424,1.921,0.598c0.319,0.076,0.624,0.151,0.955,0.214 c0.999,0.187,1.996,0.312,3.04,0.312c9.27,0,16.788-7.512,16.788-16.783c0-9.272-7.517-16.783-16.788-16.783 c-1.043,0-2.041,0.125-3.04,0.31c-0.33,0.057-0.636,0.136-0.955,0.212c-0.656,0.176-1.296,0.368-1.921,0.6 c-0.35,0.131-0.687,0.255-1.01,0.412c-0.649,0.292-1.267,0.636-1.872,1.009c-0.225,0.138-0.468,0.25-0.687,0.401H238.9 l-0.018,0.025l-2.634,2.271v0.013c-0.33,0.35-0.616,0.736-0.917,1.109c-0.256,0.312-0.536,0.588-0.761,0.917 c0,0.007,0,0.007,0,0.007c-7.512,7.956-20.84,7.926-28.299-0.092c-0.131-0.182-0.294-0.332-0.432-0.506 c-0.368-0.48-0.73-0.96-1.147-1.403l-2.677-2.315l-0.007-0.025h-0.013c-0.212-0.151-0.455-0.263-0.685-0.401 c-0.593-0.373-1.218-0.716-1.86-1.009c-0.33-0.158-0.667-0.281-1.011-0.412c-0.629-0.232-1.267-0.424-1.927-0.6 c-0.319-0.076-0.637-0.155-0.955-0.212c-0.992-0.186-1.99-0.31-3.051-0.31c-9.259,0-16.771,7.511-16.771,16.783 C175.736,437.701,183.248,445.214,192.507,445.214z"/>
        </g>
        <g>
          <linearGradient id="SVGID_00000118388233863463222580000012980884486290976919_" gradientUnits="userSpaceOnUse" x1="82.0303" y1="-287.304" x2="82.0303" y2="-288.3146" gradientTransform="matrix(0 -1 1 0 486.7552 438.6807)">
            <stop offset="0" style="stop-color:#E0013F"/>
            <stop offset="1" style="stop-color:#4A017D"/>
          </linearGradient>
          <path style="fill:url(#SVGID_00000118388233863463222580000012980884486290976919_);" d="M198.441,356.445 c0.343,0.131,0.68,0.263,1.011,0.411C199.121,356.708,198.784,356.576,198.441,356.445z"/>
          <linearGradient id="SVGID_00000117664272001487501820000014864136185283728059_" gradientUnits="userSpaceOnUse" x1="80.6116" y1="-284.7589" x2="80.6116" y2="-285.444" gradientTransform="matrix(0 -1 1 0 486.7552 438.6807)">
            <stop offset="0" style="stop-color:#E0013F"/>
            <stop offset="1" style="stop-color:#4A017D"/>
          </linearGradient>
          <path style="fill:url(#SVGID_00000117664272001487501820000014864136185283728059_);" d="M201.311,357.866 c0.23,0.138,0.473,0.25,0.685,0.406C201.784,358.116,201.541,358.004,201.311,357.866z"/>
          <linearGradient id="SVGID_00000176038764977043672770000008164334980834659218_" gradientUnits="userSpaceOnUse" x1="82.9407" y1="-290.2419" x2="82.9407" y2="-291.1966" gradientTransform="matrix(0 -1 1 0 486.7552 438.6807)">
            <stop offset="0" style="stop-color:#E0013F"/>
            <stop offset="1" style="stop-color:#4A017D"/>
          </linearGradient>
          <path style="fill:url(#SVGID_00000176038764977043672770000008164334980834659218_);" d="M195.559,355.633 c0.317,0.057,0.636,0.138,0.955,0.214C196.188,355.771,195.882,355.691,195.559,355.633z"/>
          <linearGradient id="SVGID_00000015346439939745802100000001370259099412612236_" gradientUnits="userSpaceOnUse" x1="50.2141" y1="-290.2419" x2="50.2141" y2="-291.1966" gradientTransform="matrix(0 -1 1 0 486.7552 438.6807)">
            <stop offset="0" style="stop-color:#E0013F"/>
            <stop offset="1" style="stop-color:#4A017D"/>
          </linearGradient>
          <path style="fill:url(#SVGID_00000015346439939745802100000001370259099412612236_);" d="M196.513,388.357 c-0.319,0.081-0.637,0.156-0.955,0.219C195.882,388.513,196.188,388.438,196.513,388.357z"/>
          <linearGradient id="SVGID_00000053510769348741081560000001407866517688615315_" gradientUnits="userSpaceOnUse" x1="52.5473" y1="-284.7589" x2="52.5473" y2="-285.444" gradientTransform="matrix(0 -1 1 0 486.7552 438.6807)">
            <stop offset="0" style="stop-color:#E0013F"/>
            <stop offset="1" style="stop-color:#4A017D"/>
          </linearGradient>
          <path style="fill:url(#SVGID_00000053510769348741081560000001407866517688615315_);" d="M201.996,385.931 c-0.212,0.156-0.455,0.274-0.685,0.406C201.541,386.205,201.784,386.087,201.996,385.931z"/>
          <linearGradient id="SVGID_00000142886599173313775860000006746243426205832112_" gradientUnits="userSpaceOnUse" x1="53.9021" y1="-282.0937" x2="53.9021" y2="-284.7392" gradientTransform="matrix(0 -1 1 0 486.7552 438.6807)">
            <stop offset="0" style="stop-color:#E0013F"/>
            <stop offset="1" style="stop-color:#4A017D"/>
          </linearGradient>
          <path style="fill:url(#SVGID_00000142886599173313775860000006746243426205832112_);" d="M204.661,383.64l-2.645,2.277 C202.989,385.257,203.856,384.483,204.661,383.64z"/>
          <linearGradient id="SVGID_00000183223103238937261080000005045808973158573455_" gradientUnits="userSpaceOnUse" x1="51.1244" y1="-287.304" x2="51.1244" y2="-288.3146" gradientTransform="matrix(0 -1 1 0 486.7552 438.6807)">
            <stop offset="0" style="stop-color:#E0013F"/>
            <stop offset="1" style="stop-color:#4A017D"/>
          </linearGradient>
          <path style="fill:url(#SVGID_00000183223103238937261080000005045808973158573455_);" d="M199.451,387.353 c-0.33,0.15-0.667,0.274-1.011,0.406C198.784,387.628,199.121,387.503,199.451,387.353z"/>
          <linearGradient id="SVGID_00000098196649441996420370000002129787417366410625_" gradientUnits="userSpaceOnUse" x1="78.5297" y1="-280.9156" x2="78.5297" y2="-284.7392" gradientTransform="matrix(0 -1 1 0 486.7552 438.6807)">
            <stop offset="0" style="stop-color:#E0013F"/>
            <stop offset="1" style="stop-color:#4A017D"/>
          </linearGradient>
          <path style="fill:url(#SVGID_00000098196649441996420370000002129787417366410625_);" d="M205.84,362.01 c-1.078-1.434-2.345-2.708-3.824-3.718l2.677,2.315C205.11,361.049,205.471,361.524,205.84,362.01z"/>
          <linearGradient id="SVGID_00000156580821058212916120000012096225970416674975_" gradientUnits="userSpaceOnUse" x1="56.6213" y1="-280.416" x2="56.6213" y2="-281.1703" gradientTransform="matrix(0 -1 1 0 486.7552 438.6807)">
            <stop offset="0" style="stop-color:#E0013F"/>
            <stop offset="1" style="stop-color:#4A017D"/>
          </linearGradient>
          <path style="fill:url(#SVGID_00000156580821058212916120000012096225970416674975_);" d="M205.585,382.518 c0.25-0.306,0.529-0.593,0.754-0.917l0,0C206.114,381.931,205.835,382.212,205.585,382.518z"/>
          <linearGradient id="SVGID_00000158731703413251891530000003757251262579921339_" gradientUnits="userSpaceOnUse" x1="50.2141" y1="-241.4038" x2="50.2141" y2="-242.3585" gradientTransform="matrix(0 -1 1 0 486.7552 438.6807)">
            <stop offset="0" style="stop-color:#E0013F"/>
            <stop offset="1" style="stop-color:#4A017D"/>
          </linearGradient>
          <path style="fill:url(#SVGID_00000158731703413251891530000003757251262579921339_);" d="M245.351,388.576 c-0.33-0.062-0.636-0.138-0.955-0.219C244.715,388.438,245.021,388.513,245.351,388.576z"/>
          <linearGradient id="SVGID_00000047743022000312418160000011717115015455402919_" gradientUnits="userSpaceOnUse" x1="79.2534" y1="-247.8727" x2="79.2534" y2="-250.5067" gradientTransform="matrix(0 -1 1 0 486.7552 438.6807)">
            <stop offset="0" style="stop-color:#E0013F"/>
            <stop offset="1" style="stop-color:#4A017D"/>
          </linearGradient>
          <path style="fill:url(#SVGID_00000047743022000312418160000011717115015455402919_);" d="M236.248,360.563l2.634-2.271 C237.928,358.947,237.06,359.728,236.248,360.563z"/>
          <linearGradient id="SVGID_00000050638427919780753790000006180233601314003336_" gradientUnits="userSpaceOnUse" x1="76.5332" y1="-251.4235" x2="76.5332" y2="-252.1842" gradientTransform="matrix(0 -1 1 0 486.7552 438.6807)">
            <stop offset="0" style="stop-color:#E0013F"/>
            <stop offset="1" style="stop-color:#4A017D"/>
          </linearGradient>
          <path style="fill:url(#SVGID_00000050638427919780753790000006180233601314003336_);" d="M235.332,361.685 c-0.261,0.314-0.536,0.595-0.761,0.925c0,0,0,0,0-0.007C234.796,362.273,235.07,361.999,235.332,361.685z"/>
          <linearGradient id="SVGID_00000057137611703669063900000002123874775917773242_" gradientUnits="userSpaceOnUse" x1="51.1244" y1="-244.2793" x2="51.1244" y2="-245.2898" gradientTransform="matrix(0 -1 1 0 486.7552 438.6807)">
            <stop offset="0" style="stop-color:#E0013F"/>
            <stop offset="1" style="stop-color:#4A017D"/>
          </linearGradient>
          <path style="fill:url(#SVGID_00000057137611703669063900000002123874775917773242_);" d="M242.476,387.759 c-0.35-0.131-0.687-0.256-1.01-0.406C241.789,387.503,242.126,387.628,242.476,387.759z"/>
          <linearGradient id="SVGID_00000097475974865760810760000008057515618072019384_" gradientUnits="userSpaceOnUse" x1="82.0303" y1="-244.2793" x2="82.0303" y2="-245.2898" gradientTransform="matrix(0 -1 1 0 486.7552 438.6807)">
            <stop offset="0" style="stop-color:#E0013F"/>
            <stop offset="1" style="stop-color:#4A017D"/>
          </linearGradient>
          <path style="fill:url(#SVGID_00000097475974865760810760000008057515618072019384_);" d="M241.465,356.856 c0.324-0.148,0.661-0.279,1.01-0.411C242.126,356.576,241.789,356.708,241.465,356.856z"/>
          <linearGradient id="SVGID_00000116209683465263140520000004458883785489232575_" gradientUnits="userSpaceOnUse" x1="82.9407" y1="-241.4038" x2="82.9407" y2="-242.3585" gradientTransform="matrix(0 -1 1 0 486.7552 438.6807)">
            <stop offset="0" style="stop-color:#E0013F"/>
            <stop offset="1" style="stop-color:#4A017D"/>
          </linearGradient>
          <path style="fill:url(#SVGID_00000116209683465263140520000004458883785489232575_);" d="M244.397,355.847 c0.319-0.076,0.624-0.156,0.955-0.214C245.021,355.691,244.715,355.771,244.397,355.847z"/>
          <linearGradient id="SVGID_00000091698340348795519220000003210680492206253976_" gradientUnits="userSpaceOnUse" x1="54.6217" y1="-247.8727" x2="54.6217" y2="-251.6848" gradientTransform="matrix(0 -1 1 0 486.7552 438.6807)">
            <stop offset="0" style="stop-color:#E0013F"/>
            <stop offset="1" style="stop-color:#4A017D"/>
          </linearGradient>
          <path style="fill:url(#SVGID_00000091698340348795519220000003210680492206253976_);" d="M235.07,382.201 c1.079,1.435,2.345,2.706,3.812,3.717l-2.665-2.32C235.806,383.16,235.438,382.674,235.07,382.201z"/>
          <linearGradient id="SVGID_00000052069792183091750050000006544679291225404081_" gradientUnits="userSpaceOnUse" x1="80.6116" y1="-247.1613" x2="80.6116" y2="-247.8481" gradientTransform="matrix(0 -1 1 0 486.7552 438.6807)">
            <stop offset="0" style="stop-color:#E0013F"/>
            <stop offset="1" style="stop-color:#4A017D"/>
          </linearGradient>
          <path style="fill:url(#SVGID_00000052069792183091750050000006544679291225404081_);" d="M238.907,358.272 c0.219-0.156,0.462-0.268,0.687-0.406C239.369,358.004,239.126,358.116,238.907,358.272z"/>
          <linearGradient id="SVGID_00000065783121412636253390000001743241783922089919_" gradientUnits="userSpaceOnUse" x1="52.5473" y1="-247.1613" x2="52.5473" y2="-247.8481" gradientTransform="matrix(0 -1 1 0 486.7552 438.6807)">
            <stop offset="0" style="stop-color:#E0013F"/>
            <stop offset="1" style="stop-color:#4A017D"/>
          </linearGradient>
          <path style="fill:url(#SVGID_00000065783121412636253390000001743241783922089919_);" d="M239.594,386.336 c-0.225-0.131-0.468-0.25-0.687-0.406C239.126,386.087,239.369,386.205,239.594,386.336z"/>
          <linearGradient id="SVGID_00000050652749848693176780000010483626373847123888_" gradientUnits="userSpaceOnUse" x1="66.5753" y1="-221.5764" x2="66.5753" y2="-311.0189" gradientTransform="matrix(0 -1 1 0 486.7552 438.6807)">
            <stop offset="0" style="stop-color:#E0013F"/>
            <stop offset="1" style="stop-color:#4A017D"/>
          </linearGradient>
          <path style="fill:url(#SVGID_00000050652749848693176780000010483626373847123888_);" d="M192.507,388.888 c1.061,0,2.059-0.125,3.051-0.312c0.317-0.062,0.636-0.138,0.955-0.219c0.661-0.169,1.298-0.368,1.927-0.598 c0.343-0.131,0.68-0.256,1.011-0.406c0.642-0.301,1.267-0.642,1.86-1.017c0.23-0.131,0.473-0.25,0.685-0.406h0.013l0.007-0.013 l2.645-2.277v-0.005c0.337-0.35,0.616-0.743,0.923-1.117c0.25-0.306,0.529-0.587,0.754-0.917l0,0 c7.512-7.961,20.833-7.925,28.299,0.087c0.131,0.188,0.294,0.337,0.432,0.513c0.368,0.473,0.736,0.96,1.147,1.397l2.665,2.32 l0.018,0.013h0.007c0.219,0.156,0.462,0.274,0.687,0.406c0.605,0.375,1.223,0.716,1.872,1.017 c0.324,0.15,0.661,0.274,1.01,0.406c0.624,0.23,1.265,0.429,1.921,0.598c0.319,0.081,0.624,0.156,0.955,0.219 c0.986,0.187,1.996,0.312,3.04,0.312c9.27,0,16.788-7.512,16.788-16.783c0-9.272-7.517-16.783-16.788-16.783 c-1.043,0-2.054,0.125-3.04,0.311c-0.33,0.057-0.636,0.138-0.955,0.214c-0.656,0.168-1.296,0.368-1.921,0.598 c-0.35,0.131-0.687,0.263-1.01,0.411c-0.649,0.294-1.267,0.637-1.872,1.01c-0.225,0.138-0.468,0.25-0.687,0.406H238.9 l-0.018,0.02l-2.634,2.271v0.013c-0.33,0.348-0.616,0.736-0.917,1.109c-0.261,0.314-0.536,0.588-0.761,0.918 c0,0.007,0,0.007,0,0.007c-7.512,7.954-20.84,7.923-28.299-0.087c-0.131-0.194-0.294-0.339-0.432-0.513 c-0.368-0.486-0.73-0.961-1.147-1.403l-2.677-2.315l-0.007-0.02h-0.013c-0.212-0.156-0.455-0.268-0.685-0.406 c-0.593-0.373-1.218-0.716-1.86-1.01c-0.33-0.148-0.667-0.279-1.011-0.411c-0.629-0.23-1.267-0.431-1.927-0.598 c-0.319-0.076-0.637-0.156-0.955-0.214c-0.992-0.186-1.99-0.311-3.051-0.311c-9.259,0-16.771,7.511-16.771,16.783 C175.736,381.376,183.248,388.888,192.507,388.888z"/>
        </g>
      </g>
    </g>
    <g/>
  </g>
</svg>