<svg xmlns="http://www.w3.org/2000/svg" data-name="Layer 1" viewBox="0 0 3000 2250"><defs><linearGradient id="a" x1="7646.254" x2="6817.908" y1="-5656.02" y2="-4827.674" gradientTransform="rotate(105 1989.153 -4411.29)" gradientUnits="userSpaceOnUse"><stop class="stopColorff5607 svgShape" offset="0" stop-color="#ea4335"/><stop class="stopColorffa700 svgShape" offset="1" stop-color="#fbbc05"/></linearGradient></defs><g class="color000000 svgShape" data-name="no products"><circle cx="1472.233" cy="1494.278" r="636.214" fill="#fcf3d9" class="colorfcfbd9 svgShape"/><path fill="#fff" stroke="#082d12" stroke-linejoin="round" stroke-width="7.635" d="m1701.922 761.537-508.971 293.855L683.98 761.537l508.971-293.855 508.971 293.855z" class="colorffffff svgShape colorStroke081f2d svgStroke"/><path fill="none" stroke="#082d12" stroke-linejoin="round" stroke-width="7.635" d="M1192.951 467.682v587.71" class="colorStroke081f2d svgStroke"/><path fill="#34a853" stroke="#082d12" stroke-linecap="round" stroke-linejoin="round" stroke-width="7.635" d="M1380.458 708.126c23.325 12.21 95.534 51.284 128.26 124.322 5.471 12.21 18.157 41.3 6.688 53.681-14.077 15.195-57.011-2.507-73.586-10.653-53.291-26.193-207.694-133.116-409.834-286.968 78.528 16.845 220.403 52.581 348.472 119.618Z" class="color081f2d svgShape colorStroke081f2d svgStroke"/><path fill="url(#a)" d="M1393.373 120.74c-17.035-4.748-34.326 5.047-48.678 15.388-3.279-8.054-13.526-10.917-16.816-11.836-39.008-10.9-99.4 40.347-139.484 90.466.536-3.27.206-6.11-1.353-8.445-3.289-4.927-10.47-5.444-13.132-5.636-21.939-1.579-57.249 23.794-89.489 72.527-62.073 93.831-63.5 199.58-62.863 230 .105 5.016 6.651 56.021 19.738 157.827 12.334 95.95 13.36 102.913 13.967 118.465 1.7 43.514-1.7 107.707-28.084 187.944l278.2 53.863c5.717-46.978 19.227-115.8 55.489-190.386 44.392-91.31 83.1-109.423 138.483-222.65 21.343-43.631 80.952-165.487 42.707-200.323-11.236-10.233-27.017-9.406-31.59-9.167-47.384 2.484-91.808 70.175-112.364 167.619 3.743-75.288 16.862-133.808 28.569-174.16 31.689-109.217 39.094-132.871 39.094-132.872 18.89-60.348 31.656-96.215 13.321-117.819-8.536-10.057-23.236-16.347-36.8-14.886-10.044 1.082-18.957 6.457-28.153 17.744-.033-5.453-1.389-10.078-4.4-13.826-5.379-6.67-15.016-9.462-16.362-9.837Z"/><path fill="none" stroke="#082d12" stroke-miterlimit="10" stroke-width="7.635" d="M1310.33 400.465a1556.768 1556.768 0 0 1 110.828-276.44M1202.726 381.926a397.876 397.876 0 0 1 151.476-257M1112.434 391.74a412.2 412.2 0 0 1 80.776-187.14M1397.483 590.015a128.683 128.683 0 0 1 8.081-54.087" class="colorStroke081f2d svgStroke"/><path fill="#9ab3dc" d="m719.227 1809.569 455.421 247.173c34.873-114.854 291.848-1028.908 310.121-1080.968q16.587-47.307 33.441-93.836c-.115.21-.461.841-.871 1.478a12.2 12.2 0 0 1-1 1.555 7.908 7.908 0 0 1-.966 1.153c-14.025 15.177-56.954-2.493-73.555-10.652-53.285-26.176-207.682-133.082-409.839-286.937-28.345 128.433-284.407 1092.601-312.752 1221.034Z" class="colorb29adc svgShape"/><path fill="none" stroke="#082d12" stroke-miterlimit="10" stroke-width="7.635" d="M1487.838 967.033a210.241 210.241 0 0 1-135-32.631l-347.61-224.673" class="colorStroke081f2d svgStroke"/><path fill="none" stroke="#082d12" stroke-linecap="round" stroke-linejoin="round" stroke-width="7.635" d="M1508.718 832.448c5.471 12.21 18.157 41.3 6.688 53.681-14.077 15.195-57.011-2.507-73.586-10.653-53.291-26.193-207.694-133.116-409.834-286.968" class="colorStroke081f2d svgStroke"/><path fill="#e1d1a1" d="m1701.922 1349.246-508.971 293.855v-587.709l508.971-293.855v587.709zM1192.951 1643.101 683.98 1349.246V761.537l508.971 293.855v587.709z" class="colorc3e1a1 svgShape"/><path fill="#fff" stroke="#082d12" stroke-linejoin="round" stroke-width="7.635" d="m1192.95 1055.391 508.971-293.854 127.243 220.391-508.97 293.855zM1192.95 1643.101l508.972-293.854 127.243 220.391-508.971 293.855z" class="colorffffff svgShape colorStroke081f2d svgStroke"/><path fill="#fff" stroke="#082d12" stroke-linejoin="round" stroke-width="7.635" d="M556.737 981.928 683.98 761.537l508.971 293.854-127.243 220.392zM556.737 1569.638l127.243-220.391 508.97 293.854-127.242 220.392z" class="colorffffff svgShape colorStroke081f2d svgStroke"/><path fill="none" stroke="#082d12" stroke-linejoin="round" stroke-width="7.635" d="m719.227 1285.616 97.053 56.034M719.227 1318.7l97.053 56.033M1192.951 1055.392v587.709" class="colorStroke081f2d svgStroke"/><circle cx="2188.778" cy="523.312" r="254.486" fill="#4285f4" class="color1bb5c8 svgShape"/><circle cx="2234.217" cy="470.713" r="19.086" fill="#34a853" class="color081f2d svgShape"/><path fill="none" stroke="#082d12" stroke-miterlimit="10" stroke-width="12.724" d="M2136.967 602.245a127.237 127.237 0 0 1 129.059-31.161" class="colorStroke081f2d svgStroke"/><circle cx="2117.89" cy="470.713" r="19.086" fill="#34a853" class="color081f2d svgShape"/></g></svg>